<svg id="watch" xmlns="http://www.w3.org/2000/svg" width="44" height="44" viewBox="0 0 88 88">
  <defs>
    <style>
      .cls-1, .cls-2 {
        fill: #ff6a4d;
        fill-rule: evenodd;
      }

      .cls-1 {
        opacity: 0.2;
      }
    </style>
  </defs>
  <path class="cls-1" d="M940.6,6447.18a1.8,1.8,0,1,0-.659-2.46A1.808,1.808,0,0,0,940.6,6447.18ZM928,6494.2a1.8,1.8,0,1,0,1.8,1.8A1.8,1.8,0,0,0,928,6494.2Zm-14.4-50.14a1.8,1.8,0,1,0,2.459.66A1.8,1.8,0,0,0,913.6,6444.06ZM901,6467.2a1.8,1.8,0,1,0,1.8,1.8A1.8,1.8,0,0,0,901,6467.2Zm4.518-13.26a1.8,1.8,0,1,0,.658,2.46A1.8,1.8,0,0,0,905.518,6453.94Zm-1.8,27a1.8,1.8,0,1,0,2.459.66A1.8,1.8,0,0,0,903.717,6480.94Zm11.683,9.89a1.8,1.8,0,1,0,.659,2.45A1.8,1.8,0,0,0,915.4,6490.83ZM955,6467.2a1.8,1.8,0,1,0,1.8,1.8A1.8,1.8,0,0,0,955,6467.2Zm-27-37.8a39.6,39.6,0,1,0,39.6,39.6A39.6,39.6,0,0,0,928,6429.4Zm22.482,24.54a1.8,1.8,0,1,0,2.46.66A1.8,1.8,0,0,0,950.482,6453.94Zm1.8,27a1.8,1.8,0,1,0,.659,2.46A1.808,1.808,0,0,0,952.283,6480.94ZM944.2,6467.2h-9.255a7.217,7.217,0,0,0-5.145-5.15V6442a1.8,1.8,0,0,0-3.6,0v20.05a7.187,7.187,0,1,0,8.745,8.75H944.2A1.8,1.8,0,0,0,944.2,6467.2Zm-16.2,5.4a3.6,3.6,0,1,1,3.6-3.6A3.6,3.6,0,0,1,928,6472.6Zm12.6,18.23a1.8,1.8,0,1,0,2.459.65A1.788,1.788,0,0,0,940.6,6490.83Z" transform="translate(-880 -6421)"/>
  <path class="cls-2" d="M938,6440.75a2,2,0,1,0-.733-2.73A2,2,0,0,0,938,6440.75ZM924,6493a2,2,0,1,0,2,2A2,2,0,0,0,924,6493Zm-16-55.71a2,2,0,1,0,2.732.73A2,2,0,0,0,908,6437.29ZM894,6463a2,2,0,1,0,2,2A2,2,0,0,0,894,6463Zm5.019-14.73a2,2,0,1,0,.732,2.73A2,2,0,0,0,899.019,6448.27Zm-2,30a2,2,0,1,0,2.731.73A2,2,0,0,0,897.02,6478.27ZM910,6489.25a2,2,0,1,0,.732,2.73A2.009,2.009,0,0,0,910,6489.25ZM954,6463a2,2,0,1,0,2,2A2,2,0,0,0,954,6463Zm-30-42a44,44,0,1,0,44,44A44,44,0,0,0,924,6421Zm0,84a40,40,0,1,1,40-40A40,40,0,0,1,924,6505Zm24.98-56.73a2,2,0,1,0,2.733.73A2,2,0,0,0,948.98,6448.27Zm2,30a2,2,0,1,0,.733,2.73A2,2,0,0,0,950.98,6478.27ZM942,6463H931.717a8.009,8.009,0,0,0-5.717-5.72V6435a2,2,0,0,0-4,0v22.28a7.985,7.985,0,1,0,9.717,9.72H942A2,2,0,0,0,942,6463Zm-18,6a4,4,0,1,1,4-4A4,4,0,0,1,924,6469Zm14,20.25a2,2,0,1,0,2.732.73A2,2,0,0,0,938,6489.25Z" transform="translate(-880 -6421)"/>
</svg>
