<svg id="icn" xmlns="http://www.w3.org/2000/svg" width="40" height="44" viewBox="0 0 80 88">
  <defs>
    <style>
      .cls-1, .cls-2 {
        fill: #00c586;
        fill-rule: evenodd;
      }

      .cls-1 {
        opacity: 0.2;
      }
    </style>
  </defs>
  <path class="cls-1" d="M2050,6717.4c-19.88,0-36,4.84-36,10.8,0,21.6,28.8,25.2,28.8,43.2v1.8h0c0,2.64.01,4.96,0.03,7.05a0.8,0.8,0,0,0-.03.15,1.046,1.046,0,0,0,.04.17c0.16,13.45,1.14,16.03,7.16,16.03,7.2,0,7.2-3.6,7.2-25.2,0-18,28.8-21.6,28.8-43.2C2086,6722.24,2069.88,6717.4,2050,6717.4Z" transform="translate(-2006 -6709)"/>
  <path class="cls-2" d="M2046,6709c-22.09,0-40,5.37-40,12,0,24,32,28,32,48v2h0c0,2.93.01,5.52,0.03,7.84,0,0.05-.03.1-0.03,0.16a1.286,1.286,0,0,0,.04.19c0.18,14.94,1.27,17.81,7.96,17.81,8,0,8-4,8-28,0-20,32-24,32-48C2086,6714.37,2068.09,6709,2046,6709Zm20.39,35.28c-8.06,6.52-16.39,13.27-16.39,24.72,0,11.54,0,18.51-.88,22.03-0.45,1.78-.49,1.97-3.12,1.97s-2.67-.19-3.12-1.97a50.338,50.338,0,0,1-.81-10.03H2044a2,2,0,0,0,0-4h-1.98c-0.01-1.26-.02-2.58-0.02-4h2a2,2,0,0,0,0-4h-2c0-11.45-8.33-18.2-16.39-24.72-6.48-5.25-12.68-10.27-14.82-17.58,6.76,3.75,19.99,6.3,35.21,6.3,15.2,0,28.43-2.55,35.19-6.29C2079.04,6734.03,2072.86,6739.04,2066.39,6744.28ZM2046,6729c-19.88,0-36-3.58-36-8s16.12-8,36-8,36,3.58,36,8S2065.88,6729,2046,6729Z" transform="translate(-2006 -6709)"/>
</svg>
